HIERARCHY
ROOT ui
{
	 OFFSET 0 0 0
	 CHANNELS 3 XPosition YPosition Z Position
	 EndSite
	 {
	 OFFSET 0 -1 0
	 }
}
ROOT li
{
	 OFFSET 0 0 0
	 CHANNELS 3 XPosition YPosition Z Position
	 EndSite
	 {
	 OFFSET 0 -1 0
	 }
}
ROOT ul
{
	 OFFSET 0 0 0
	 CHANNELS 3 XPosition YPosition Z Position
	 EndSite
	 {
	 OFFSET 0 -1 0
	 }
}
ROOT ll
{
	 OFFSET 0 0 0
	 CHANNELS 3 XPosition YPosition Z Position
	 EndSite
	 {
	 OFFSET 0 -1 0
	 }
}
ROOT tt
{
	 OFFSET 0 0 0
	 CHANNELS 3 XPosition YPosition Z Position
	 EndSite
	 {
	 OFFSET 0 -1 0
	 }
}
ROOT tb
{
	 OFFSET 0 0 0
	 CHANNELS 3 XPosition YPosition Z Position
	 EndSite
	 {
	 OFFSET 0 -1 0
	 }
}
ROOT td
{
	 OFFSET 0 0 0
	 CHANNELS 3 XPosition YPosition Z Position
	 EndSite
	 {
	 OFFSET 0 -1 0
	 }
}
ROOT v
{
	 OFFSET 0 0 0
	 CHANNELS 3 XPosition YPosition Z Position
	 EndSite
	 {
	 OFFSET 0 -1 0
	 }
}
ROOT bn
{
	 OFFSET 0 0 0
	 CHANNELS 3 XPosition YPosition Z Position
	 EndSite
	 {
	 OFFSET 0 -1 0
	 }
}
MOTION
Frames: 29
Frame Time: 0.002
-0.004112063884735107	9.643120169639587E-4	0		0.6259754638671875	-2.561506591796875	0		-1.0803446044921876	-0.028506742477416993	0		-0.32518463134765624	-3.009863037109375	0		1.989484375	-1.4930201416015625	0		3.397746826171875	-0.6028509521484375	0		4.60585205078125	-0.02028898620605469	0		5.968146484375	0.5684598999023438	0		-0.32934255981445315	5.82938232421875	0		
-0.004330245971679687	0.0012880289554595948	0		0.6027054443359375	-2.55404638671875	0		-1.0745992431640625	-0.03318240356445312	0		-0.35732452392578123	-2.98130224609375	0		1.999298095703125	-1.47984619140625	0		3.426363037109375	-0.6228657836914062	0		4.62552685546875	-0.0352885856628418	0		5.97282958984375	0.514892333984375	0		-0.32932940673828126	5.82971923828125	0		
-5.190370082855224E-4	0.0055890769958496095	0		0.6313683471679687	-2.55395068359375	0		-1.07884619140625	-0.036774505615234376	0		-0.3694680480957031	-2.950871826171875	0		2.00608251953125	-1.46966015625	0		3.449158935546875	-0.616859619140625	0		4.64115185546875	-0.05728811264038086	0		5.9684521484375	0.5340780029296875	0		-0.32828131103515623	5.829056640625	0		
0.004176331996917725	-0.007113309860229492	0		0.6020216674804687	-2.553444091796875	0		-1.0861669921875	-0.05133405685424805	0		-0.37170086669921876	-2.931505615234375	0		2.00881396484375	-1.4664549560546876	0		3.4488427734375	-0.626709228515625	0		4.66082958984375	-0.07234351348876954	0		5.95888330078125	0.484093505859375	0		-0.32818438720703125	5.82940673828125	0		
-0.004961987018585205	0.002285269021987915	0		0.6266326293945312	-2.558324951171875	0		-1.0534024658203125	-0.0551734619140625	0		-0.3978301086425781	-2.89696337890625	0		2.012575439453125	-1.4592672119140624	0		3.462602783203125	-0.6266775512695313	0		4.672521484375	-0.08636806488037109	0		5.9486962890625	0.4652080078125	0		-0.32804595947265625	5.82976025390625	0		
-0.009172970771789551	-3.517430126667023E-4	0		0.5993037719726563	-2.5548349609375	0		-1.09964501953125	-0.06143920135498047	0		-0.4000649719238281	-2.877590576171875	0		2.020365966796875	-1.449119384765625	0		3.463301025390625	-0.6365701293945313	0		4.68221728515625	-0.10140238952636718	0		5.94856201171875	0.4651287841796875	0		-0.32588104248046873	5.82810009765625	0		
0.0036116690635681153	-0.006115228176116943	0		0.6299749755859375	-2.552771484375	0		-1.0819232177734375	-0.07516584777832032	0		-0.38732708740234373	-2.863328369140625	0		2.0301925048828124	-1.4359976806640624	0		3.49721826171875	-0.6187213134765625	0		4.70496533203125	-0.11155411529541015	0		5.9413076171875	0.465131591796875	0		-0.3115877685546875	5.83835009765625	0		
0.007493854999542237	-0.001818263053894043	0		0.606701416015625	-2.54531884765625	0		-1.0861048583984374	-0.07873334503173827	0		-0.3964453430175781	-2.831908447265625	0		2.058032958984375	-1.4240206298828124	0		3.46904345703125	-0.6164328002929688	0		4.704677734375	-0.1295568084716797	0		5.93891015625	0.414840576171875	0		-0.3263911437988281	5.82981005859375	0		
0.02041331100463867	0.003406008958816528	0		0.6293472290039063	-2.552212158203125	0		-1.0623106689453126	-0.0895117645263672	0		-0.412587646484375	-2.807439208984375	0		2.0269329833984373	-1.4076162109375	0		3.496865966796875	-0.6185703735351562	0		4.70949853515625	-0.13661178588867187	0		5.92033984375	0.434015625	0		-0.32608740234375	5.83015576171875	0		
0.0032614328861236574	-0.005150302886962891	0		0.6020911254882813	-2.549738037109375	0		-1.06046240234375	-0.09713196563720704	0		-0.41675	-2.7900625	0		2.049781982421875	-1.4026217041015625	0		3.49673583984375	-0.6185100708007812	0		4.7243427734375	-0.14475332641601563	0		5.91727490234375	0.385421630859375	0		-0.3257445373535156	5.83049658203125	0		
-0.009744322776794434	0.0012595089673995972	0		0.6288366088867188	-2.551676513671875	0		-1.1015426025390624	-0.0994306640625	0		-0.41786904907226563	-2.77171337890625	0		2.0378260498046874	-1.3763702392578125	0		3.485760986328125	-0.6023721313476562	0		4.71922021484375	-0.15275039672851562	0		5.90658642578125	0.40097201538085936	0		-0.31030010986328127	5.83971728515625	0		
0.0031906681060791015	-0.004533696174621582	0		0.6036728515625	-2.54622412109375	0		-1.0906456298828124	-0.1091295166015625	0		-0.4278569641113281	-2.741301513671875	0		2.033784912109375	-1.36618115234375	0		3.4977138671875	-0.6004103393554687	0		4.73918994140625	-0.15293916320800782	0		5.90295556640625	0.38525637817382813	0		-0.29481280517578123	5.8509296875	0		
0.03020302200317383	-0.004442326068878174	0		0.6055237426757812	-2.54398095703125	0		-1.0906397705078126	-0.10875224304199219	0		-0.45983258056640625	-2.71472314453125	0		2.0438111572265627	-1.352100341796875	0		3.486802001953125	-0.58526904296875	0		4.73614599609375	-0.1589461212158203	0		5.902962890625	0.3850596923828125	0		-0.2943901672363281	5.85125146484375	0		
-0.00568250322341919	0.005134387016296387	0		0.6033821411132813	-2.5457080078125	0		-1.0967208251953124	-0.12333489990234375	0		-0.42684576416015624	-2.69865380859375	0		2.0448974609375	-1.334947265625	0		3.503837158203125	-0.5813367919921875	0		4.74706884765625	-0.17304945373535155	0		5.89647216796875	0.35387435913085935	0		-0.2939576110839844	5.851568359375	0		
-0.009637338638305664	0.002461678981781006	0		0.6032923583984375	-2.5454501953125	0		-1.09069970703125	-0.12801860046386718	0		-0.47069140625	-2.665986083984375	0		2.0370487060546876	-1.313716552734375	0		3.478996337890625	-0.5650625610351563	0		4.737126953125	-0.17297029113769533	0		5.88225927734375	0.3557514953613281	0		-0.29352560424804686	5.8518818359375	0		
3.790059983730316E-4	-0.006322329998016358	0		0.603235595703125	-2.54518994140625	0		-1.07969873046875	-0.13774903869628907	0		-0.45663632202148435	-2.6507763671875	0		2.001221923828125	-1.2932525634765626	0		3.492972412109375	-0.57507666015625	0		4.737205078125	-0.172945068359375	0		5.882919921875	0.32106796264648435	0		-0.2609470520019531	5.8719384765625	0		
4.8156699538230897E-4	-0.006027151107788086	0		0.6092647705078125	-2.5379736328125	0		-1.0796029052734375	-0.13739891052246095	0		-0.47550784301757815	-2.630306640625	0		2.0174263916015627	-1.272187744140625	0		3.495397705078125	-0.5309765625	0		4.74439501953125	-0.16094718933105467	0		5.89081884765625	0.3157173156738281	0		-0.2756329040527344	5.8613671875	0		
0.012610456466674805	-0.0038257019519805906	0		0.6372646484375	-2.537927734375	0		-1.05951220703125	-0.13921368408203125	0		-0.4723263854980469	-2.607012451171875	0		2.024676025390625	-1.248036376953125	0		3.472512451171875	-0.5276489868164063	0		4.74740478515625	-0.172883544921875	0		5.86518603515625	0.30589956665039064	0		-0.29233102416992185	5.85281396484375	0		
-0.005189227104187012	0.00662280797958374	0		0.5904271850585937	-2.520268798828125	0		-1.073422119140625	-0.14175672912597656	0		-0.48711907958984374	-2.5835703125	0		2.022861328125	-1.2337928466796875	0		3.461733154296875	-0.5123872680664062	0		4.7295341796875	-0.1706128234863281	0		5.862369140625	0.29225946044921874	0		-0.321160400390625	5.83236376953125	0		
-0.009094098091125487	0.003969024896621704	0		0.6174441528320312	-2.52319189453125	0		-1.0713721923828126	-0.14942637634277345	0		-0.47496575927734375	-2.569339599609375	0		1.9811629638671875	-1.2062015380859374	0		3.465876953125	-0.5072120056152344	0		4.72964794921875	-0.17044364929199218	0		5.85591845703125	0.25801904296875	0		-0.30678265380859376	5.84257373046875	0		
9.461640119552612E-4	-0.004785521984100342	0		0.5905248413085937	-2.51966064453125	0		-1.0712620849609376	-0.149075439453125	0		-0.4998049011230469	-2.5557998046875	0		1.9854193115234375	-1.1849542236328126	0		3.45129638671875	-0.4678450927734375	0		4.722806640625	-0.16416983032226562	0		5.84886474609375	0.2584900207519531	0		-0.2763564147949219	5.864662109375	0		
-0.008876467704772949	0.004637118816375733	0		0.592606689453125	-2.517344482421875	0		-1.0611689453125	-0.149799072265625	0		-0.5335432739257813	-2.531174560546875	0		1.9667257080078124	-1.157489013671875	0		3.4653193359375	-0.47666961669921876	0		4.72796484375	-0.1569408721923828	0		5.8489375	0.25892727661132814	0		-0.2741800231933594	5.86299169921875	0		
-7.289069890975953E-4	0.011930801391601563	0		0.5987369384765625	-2.51003857421875	0		-1.067038330078125	-0.14438397216796875	0		-0.4843819274902344	-2.52021142578125	0		1.96212646484375	-1.11810400390625	0		3.45566796875	-0.4442539978027344	0		4.71401416015625	-0.1615001220703125	0		5.84248388671875	0.23019654846191406	0		-0.27404888916015624	5.8633525390625	0		
0.0012160019874572754	-0.003707035064697266	0		0.621758544921875	-2.516846923828125	0		-1.066962646484375	-0.14400775146484374	0		-0.5162444458007812	-2.51257373046875	0		1.9473916015625	-1.0946014404296875	0		3.45978466796875	-0.4389032897949219	0		4.720146484375	-0.1541637725830078	0		5.84253759765625	0.23086654663085937	0		-0.275966552734375	5.86574658203125	0		
-0.004627806186676025	0.008738319396972656	0		0.5859330444335937	-2.505151123046875	0		-1.0669029541015624	-0.14362164306640626	0		-0.4820397338867187	-2.49745947265625	0		1.9407459716796875	-1.0591290283203125	0		3.419068603515625	-0.4111385498046875	0		4.70527197265625	-0.14559724426269532	0		5.8318349609375	0.21802725219726563	0		-0.2759676513671875	5.866140625	0		
-0.00574222993850708	-0.009837894439697266	0		0.594946044921875	-2.5137978515625	0		-1.0668603515625	-0.14322627258300782	0		-0.5118794250488281	-2.487809814453125	0		1.9320413818359374	-1.0296058349609376	0		3.417148681640625	-0.4066440124511719	0		4.6873720703125	-0.13794903564453126	0		5.8247333984375	0.2190727081298828	0		-0.273060791015625	5.8635263671875	0		
0.001335582971572876	-0.002462470054626465	0		0.5720995483398438	-2.505163818359375	0		-1.0549166259765625	-0.1529189910888672	0		-0.49278463745117185	-2.486544921875	0		1.910284912109375	-1.0049447021484375	0		3.429511962890625	-0.36521905517578124	0		4.698388671875	-0.1384808349609375	0		5.83188330078125	0.21994882202148439	0		-0.2722119140625	5.861943359375	0		
0.008394186973571777	0.004930353164672852	0		0.5952916259765625	-2.491880615234375	0		-1.04282080078125	-0.14160272216796874	0		-0.5764527587890625	-2.455436279296875	0		1.893708984375	-0.9562944946289063	0		3.38660888671875	-0.35430615234375	0		4.68358154296875	-0.11475057983398437	0		5.82475634765625	0.22121070861816405	0		-0.2894739990234375	5.85452099609375	0		
-0.008605916023254395	0.007533226013183594	0		0.592337646484375	-2.496365478515625	0		-1.0668387451171875	-0.14198689270019532	0		-0.5064265747070312	-2.4625546875	0		1.8810689697265626	-0.9136473999023438	0		3.40274267578125	-0.336829345703125	0		4.68052978515625	-0.11906737518310546	0		5.82043505859375	0.21213525390625	0		-0.30481906127929687	5.844095703125	0		
